<?xml version="1.0" standalone="no"?>
<!DOCTYPE svg PUBLIC "-//W3C//DTD SVG 1.1//EN" "http://www.w3.org/Graphics/SVG/1.1/DTD/svg11.dtd" >
<svg xmlns="http://www.w3.org/2000/svg">
<metadata></metadata>
<defs>
<font id="automobileregular" horiz-adv-x="1742" >
<font-face units-per-em="2048" ascent="1638" descent="-410" />
<missing-glyph horiz-adv-x="649" />
<glyph horiz-adv-x="2048" />
<glyph horiz-adv-x="2048" />
<glyph unicode="&#xd;" horiz-adv-x="649" />
<glyph unicode=" "  horiz-adv-x="649" />
<glyph unicode="&#x09;" horiz-adv-x="649" />
<glyph unicode="&#xa0;" horiz-adv-x="649" />
<glyph unicode="!" horiz-adv-x="838" d="M332 165q-3 61 51.5 121.5t115.5 60.5q55 0 93.5 -36.5t43.5 -91.5q5 -65 -45.5 -109t-116.5 -44q-16 3 -99 21q-39 35 -43 78zM395 394q-5 381 29 895q46 706 131 803q52 60 116 60q25 0 114 -19q23 -42 26 -74q3 -47 -20 -102q-13 -27 -44 -98q-68 -164 -100 -455 q-16 -151 -28 -495q-13 -320 -35 -493l-83 -73z" />
<glyph unicode="&#x22;" horiz-adv-x="793" d="M170 1624q2 115 6 232q5 123 52 222l70 3q110 4 119 -120q3 -43 4 -53q0 -198 -114 -282l-52 -2h-85zM485 1605q0 74 7 232q5 121 53 222l68 3q111 4 120 -120q2 -20 1 -55q0 -197 -110 -280l-54 -2h-85z" />
<glyph unicode="#" horiz-adv-x="1739" d="M50 1334q27 38 33 51q9 19 19 55l270 22l33 167q-63 -3 -91 -3q-176 0 -224 110q14 20 31 49q9 17 21 55l313 27q30 162 66 220q63 101 201 101q52 0 119 -14q27 -39 27 -85q0 -52 -79 -205q98 2 215 2q28 147 67 205q61 90 189 89q54 0 122 -15q30 -41 30 -85 q0 -52 -81 -199q151 -2 161 -3q69 -2 159 -28q39 -52 39 -93q0 -98 -184 -117q-77 -8 -257 -2q-20 -68 -36 -156q287 0 400 -33q41 -55 41 -97q0 -96 -206 -115q-85 -8 -276 0q-17 -178 -35 -232q-46 -142 -160 -175q-49 24 -59 27q-17 6 -66 14q5 128 22 366l-245 -3 q-17 -172 -35 -226q-44 -137 -159 -170q-46 22 -58 27q-20 8 -65 16q2 121 17 346q-46 -2 -71 -1q-161 0 -208 108zM670 1479q110 5 250 5l30 154l-247 -3q-17 -66 -33 -156z" />
<glyph unicode="$" d="M206 695q5 291 172 581q-24 -180 -22 -299q2 -246 107 -478q120 -262 322 -379q-74 8 -160 20q-9 5 -34 11q-95 11 -198 95.5t-138 175.5l-12 32q-38 98 -37 241zM447 928q0 126 38 268q33 121 101 242q46 76 134 227q126 221 126 375q0 17 -2 32l19 1l-3 3 q351 -474 381 -928q9 -145 -26 -294q-39 -159 -122 -266q-38 -49 -140 -191q-52 -74 -71 -184l-16 -96q-79 58 -164.5 158t-131.5 188q-123 235 -123 465zM619 1245l17 -498h265q206 29 206 239q0 118 -81 191q-79 68 -199 68h-208zM803 1089q57 6 93.5 -25.5t31.5 -88.5 q-8 -80 -115 -80q0 -2 -5 96zM977 191q0 154 138 367q28 43 106 167q85 140 85 474q0 65 -2 102q-3 85 -18 276q225 -355 255 -750q3 -43 3 -83q0 -422 -344 -517l-63 -16q-13 -5 -53 -20q-65 -24 -98 -87q-9 43 -9 87z" />
<glyph unicode="%" d="M206 695q5 291 172 581q-24 -180 -22 -299q2 -246 107 -478q120 -262 322 -379q-74 8 -160 20q-9 5 -34 11q-95 11 -198 95.5t-138 175.5l-12 32q-38 98 -37 241zM447 928q0 126 38 268q33 121 101 242q46 76 134 227q126 221 126 375q0 17 -2 32l19 1l-3 3 q351 -474 381 -928q9 -145 -26 -294q-39 -159 -122 -266q-38 -49 -140 -191q-52 -74 -71 -184l-16 -96q-79 58 -164.5 158t-131.5 188q-123 235 -123 465zM619 1245l17 -498h265q206 29 206 239q0 118 -81 191q-79 68 -199 68h-208zM803 1089q57 6 93.5 -25.5t31.5 -88.5 q-8 -80 -115 -80q0 -2 -5 96zM977 191q0 154 138 367q28 43 106 167q85 140 85 474q0 65 -2 102q-3 85 -18 276q225 -355 255 -750q3 -43 3 -83q0 -422 -344 -517l-63 -16q-13 -5 -53 -20q-65 -24 -98 -87q-9 43 -9 87z" />
<glyph unicode="&#x26;" horiz-adv-x="1238" d="M-95 343q-9 126 164 308q88 91 281 247q55 44 74 61q-5 44 -41 134t-40 139q0 14 5 46q25 147 101 223q83 85 203 85q110 0 205 -78q99 -83 99 -193q0 -173 -269 -411q110 -222 312 -450q134 109 134 193q0 19 -16 57l154 -1q57 -57 62 -111q6 -76 -76 -167 q-13 -14 -129 -119q139 -194 298 -281q-87 -85 -166 -85q-136 1 -331 240q-244 -124 -477 -125q-150 0 -324 71q-213 87 -223 217zM134 325q8 -95 208 -95q258 0 460 102q-154 232 -299 423q-380 -279 -369 -430zM544 1263q6 -77 47 -167q57 50 104 126q58 91 53 145 q-5 41 -71 41q-144 0 -133 -145z" />
<glyph unicode="'" horiz-adv-x="631" d="M298 1627q0 120 3 230q3 120 49 223q93 3 113 -7q45 -20 51 -110q2 -24 1 -60q0 -189 -94 -274q-25 -2 -49 -2h-74z" />
<glyph unicode="(" d="M206 695q5 291 172 581q-24 -180 -22 -299q2 -246 107 -478q120 -262 322 -379q-74 8 -160 20q-9 5 -34 11q-95 11 -198 95.5t-138 175.5l-12 32q-38 98 -37 241zM447 928q0 126 38 268q33 121 101 242q46 76 134 227q126 221 126 375q0 17 -2 32l19 1l-3 3 q351 -474 381 -928q9 -145 -26 -294q-39 -159 -122 -266q-38 -49 -140 -191q-52 -74 -71 -184l-16 -96q-79 58 -164.5 158t-131.5 188q-123 235 -123 465zM619 1245l17 -498h265q206 29 206 239q0 118 -81 191q-79 68 -199 68h-208zM803 1089q57 6 93.5 -25.5t31.5 -88.5 q-8 -80 -115 -80q0 -2 -5 96zM977 191q0 154 138 367q28 43 106 167q85 140 85 474q0 65 -2 102q-3 85 -18 276q225 -355 255 -750q3 -43 3 -83q0 -422 -344 -517l-63 -16q-13 -5 -53 -20q-65 -24 -98 -87q-9 43 -9 87z" />
<glyph unicode=")" d="M206 695q5 291 172 581q-24 -180 -22 -299q2 -246 107 -478q120 -262 322 -379q-74 8 -160 20q-9 5 -34 11q-95 11 -198 95.5t-138 175.5l-12 32q-38 98 -37 241zM447 928q0 126 38 268q33 121 101 242q46 76 134 227q126 221 126 375q0 17 -2 32l19 1l-3 3 q351 -474 381 -928q9 -145 -26 -294q-39 -159 -122 -266q-38 -49 -140 -191q-52 -74 -71 -184l-16 -96q-79 58 -164.5 158t-131.5 188q-123 235 -123 465zM619 1245l17 -498h265q206 29 206 239q0 118 -81 191q-79 68 -199 68h-208zM803 1089q57 6 93.5 -25.5t31.5 -88.5 q-8 -80 -115 -80q0 -2 -5 96zM977 191q0 154 138 367q28 43 106 167q85 140 85 474q0 65 -2 102q-3 85 -18 276q225 -355 255 -750q3 -43 3 -83q0 -422 -344 -517l-63 -16q-13 -5 -53 -20q-65 -24 -98 -87q-9 43 -9 87z" />
<glyph unicode="*" horiz-adv-x="948" d="M99 1913l44 48q80 -2 136 7q22 3 74 11q-6 32 -16 123l-1 50q27 8 39 8q49 0 128 -93q19 8 70 53q69 60 137 60q19 0 46 -4q9 -22 11 -40q3 -43 -39 -86q-17 -17 -73 -70q118 -17 183 -88q0 -24 -30 -74q-112 -3 -190 2q11 -54 72 -145q-71 -57 -99 -57q-55 0 -96 63 l-66 101q-24 -16 -67 -71l-63 -84q-22 -9 -86 -9q-14 35 -16 50q-3 47 69 158l-91 25q-36 14 -76 62z" />
<glyph unicode="+" d="M206 695q5 291 172 581q-24 -180 -22 -299q2 -246 107 -478q120 -262 322 -379q-74 8 -160 20q-9 5 -34 11q-95 11 -198 95.5t-138 175.5l-12 32q-38 98 -37 241zM447 928q0 126 38 268q33 121 101 242q46 76 134 227q126 221 126 375q0 17 -2 32l19 1l-3 3 q351 -474 381 -928q9 -145 -26 -294q-39 -159 -122 -266q-38 -49 -140 -191q-52 -74 -71 -184l-16 -96q-79 58 -164.5 158t-131.5 188q-123 235 -123 465zM619 1245l17 -498h265q206 29 206 239q0 118 -81 191q-79 68 -199 68h-208zM803 1089q57 6 93.5 -25.5t31.5 -88.5 q-8 -80 -115 -80q0 -2 -5 96zM977 191q0 154 138 367q28 43 106 167q85 140 85 474q0 65 -2 102q-3 85 -18 276q225 -355 255 -750q3 -43 3 -83q0 -422 -344 -517l-63 -16q-13 -5 -53 -20q-65 -24 -98 -87q-9 43 -9 87z" />
<glyph unicode="," horiz-adv-x="554" d="M128 -178q39 191 151 405h27q50 0 85 -3q55 -33 58 -76q2 -19 -35 -128q-72 -217 -200 -217q-35 0 -86 19z" />
<glyph unicode="-" d="M206 695q5 291 172 581q-24 -180 -22 -299q2 -246 107 -478q120 -262 322 -379q-74 8 -160 20q-9 5 -34 11q-95 11 -198 95.5t-138 175.5l-12 32q-38 98 -37 241zM447 928q0 126 38 268q33 121 101 242q46 76 134 227q126 221 126 375q0 17 -2 32l19 1l-3 3 q351 -474 381 -928q9 -145 -26 -294q-39 -159 -122 -266q-38 -49 -140 -191q-52 -74 -71 -184l-16 -96q-79 58 -164.5 158t-131.5 188q-123 235 -123 465zM619 1245l17 -498h265q206 29 206 239q0 118 -81 191q-79 68 -199 68h-208zM803 1089q57 6 93.5 -25.5t31.5 -88.5 q-8 -80 -115 -80q0 -2 -5 96zM977 191q0 154 138 367q28 43 106 167q85 140 85 474q0 65 -2 102q-3 85 -18 276q225 -355 255 -750q3 -43 3 -83q0 -422 -344 -517l-63 -16q-13 -5 -53 -20q-65 -24 -98 -87q-9 43 -9 87z" />
<glyph unicode="." horiz-adv-x="589" d="M258 115q-3 54 34 87.5t92 33.5q49 0 82.5 -33.5t36.5 -82.5q3 -57 -35 -87.5t-96 -30.5q-107 0 -114 113z" />
<glyph unicode="/" d="M206 695q5 291 172 581q-24 -180 -22 -299q2 -246 107 -478q120 -262 322 -379q-74 8 -160 20q-9 5 -34 11q-95 11 -198 95.5t-138 175.5l-12 32q-38 98 -37 241zM447 928q0 126 38 268q33 121 101 242q46 76 134 227q126 221 126 375q0 17 -2 32l19 1l-3 3 q351 -474 381 -928q9 -145 -26 -294q-39 -159 -122 -266q-38 -49 -140 -191q-52 -74 -71 -184l-16 -96q-79 58 -164.5 158t-131.5 188q-123 235 -123 465zM619 1245l17 -498h265q206 29 206 239q0 118 -81 191q-79 68 -199 68h-208zM803 1089q57 6 93.5 -25.5t31.5 -88.5 q-8 -80 -115 -80q0 -2 -5 96zM977 191q0 154 138 367q28 43 106 167q85 140 85 474q0 65 -2 102q-3 85 -18 276q225 -355 255 -750q3 -43 3 -83q0 -422 -344 -517l-63 -16q-13 -5 -53 -20q-65 -24 -98 -87q-9 43 -9 87z" />
<glyph unicode="0" horiz-adv-x="1044" d="M13 594q0 236 93 450q101 235 282 358q69 47 146 47q46 0 95 -28l26 -16q2 -2 7 -4h15q14 2 19 1q22 0 43 -9q128 -60 206 -208q69 -129 82 -287q2 -19 2 -57q0 -233 -112 -446q-122 -234 -320 -319q-44 -19 -156 -19q-213 0 -328 168q-101 147 -100 369zM241 566 q0 -50 2 -71q22 -296 206 -297q30 0 49 8q151 65 236 281q71 181 71 394q0 142 -44 244q-60 137 -183 137q-58 0 -109 -51q-113 -112 -174 -299q-54 -167 -54 -346z" />
<glyph unicode="1" horiz-adv-x="431" d="M58 145l11 148q3 33 16 195q39 504 101 782q14 65 85 64q36 0 91 -20q17 -65 2 -142q-16 -82 -21 -91l-12 6l20 35q-77 -520 -89 -791q0 -58 -5 -222q-2 -61 -63 -60q-24 -8 -44 -8q-85 0 -92 104z" />
<glyph unicode="2" horiz-adv-x="1323" d="M6 71q-2 36 13 178q72 30 282 116q372 154 610 383q206 198 195 333q-9 113 -167 113q-191 0 -427 -154q-222 -147 -328 -322q-131 58 -137 134q-8 98 177 227q124 88 331 180q233 104 354 104q151 0 269 -81q132 -88 145 -231q16 -197 -228 -404q-158 -132 -454 -289 q-19 -9 -184 -95l674 6q85 -57 88 -116q2 -16 -8 -54q-154 -19 -359 -20v1h-326q-101 0 -224 -17q-65 -9 -231 -33z" />
<glyph unicode="3" horiz-adv-x="1408" d="M-20 1130q164 154 409 237q227 76 471 76q169 0 320 -46q224 -68 233 -204q13 -161 -276 -339q-70 -44 -256 -99q362 -95 376 -289q14 -191 -263 -316q-221 -101 -447 -101q-147 0 -300 64q-192 82 -200 210q-3 49 46 90t98 41q55 0 83 -81q24 -66 73 -96q93 -55 233 -55 t297 68q181 77 174 178q-6 91 -221 140q-154 35 -329 35q-72 0 -158 -11q-3 25 -3 45q0 88 55 133q255 41 467 110q326 109 316 224q-6 65 -122 99q-91 27 -199 27q-378 0 -774 -251l-94 -4z" />
<glyph unicode="4" horiz-adv-x="1150" d="M-58 460q47 98 441.5 538t464.5 466q27 9 69 9q25 0 68 -3q50 -5 67 -5q-112 -466 -170 -858q71 5 85 4q52 0 107 -11q79 -71 111 -164q-159 -19 -337 -30q-30 -230 -30 -245q0 -44 9 -96q-50 -28 -96 -29v14l14 -4q-6 0 -3 3l-8 -13l-3 2q-9 2 -91 16l-49 41 q14 175 30 291q-83 -5 -196 -16q-134 -13 -197 -12q-246 0 -286 102zM246 548q202 8 400 41q60 296 93 501q-230 -227 -493 -542z" />
<glyph unicode="5" horiz-adv-x="1206" d="M8 277q-3 55 52 90.5t110 31.5l19 -2q33 -27 39 -52l4 -47q3 -41 105 -62q69 -14 136 -14q169 0 321 62q186 74 178 190q-6 101 -109 153q-82 43 -193 43q-140 0 -379 -71q-109 -33 -143 -30l-42 3q-6 148 14 402q25 307 71 367q369 77 638 77q216 0 313 -68v-76 q-273 -32 -780 -102q-19 -65 -26 -184q-2 -20 -10 -189q121 14 355 34l18 -9q169 -11 311 -98q169 -102 179 -255q16 -197 -266 -323q-227 -102 -455 -102q-323 0 -429 184l-17 8q-13 25 -14 39z" />
<glyph unicode="6" horiz-adv-x="1194" d="M13 471q0 340 307 715q216 265 403 265q52 0 100 -33t51 -82q2 -30 -23 -46.5t-55 -16.5q-11 0 -32.5 3t-32.5 3q-19 0 -91 -44q-255 -156 -372 -575q191 169 430 169q161 0 288 -87q140 -96 153 -249q17 -213 -194 -373q-194 -148 -411 -148q-247 0 -392 163 q-129 145 -129 336zM285 302q13 -167 241 -167q135 0 266 119q137 123 126 255q-6 72 -78 118q-65 39 -144 39q-135 0 -274 -113q-147 -120 -137 -251z" />
<glyph unicode="7" horiz-adv-x="1038" d="M22 1363l460 77q254 43 457 42q198 0 206 -102q3 -46 -38 -91q-18 -19 -64 -73q-356 -432 -720 -1177h-85l-117 82q140 290 350 618q72 113 362 558q-161 -17 -384 -56q-288 -49 -388 -96z" />
<glyph unicode="8" horiz-adv-x="1140" d="M-33 331q-14 183 230 424q-162 112 -173 256q-16 191 195 323q184 115 395 115q274 0 397 -148q87 46 130 46q93 0 85 -102q-2 -15 -4 -34q-397 -202 -653 -403q30 -14 101 -36q173 -55 226 -85q121 -69 133 -191q9 -118 -93 -239q-88 -106 -210 -161q-145 -66 -307 -66 q-165 0 -290 68q-151 82 -162 233zM169 328q0 -74 78 -111q60 -28 144 -28q189 0 318 123q83 80 79 154q-6 76 -163 125q-24 8 -241 68q-76 -68 -137 -152q-79 -107 -78 -179zM260 1040q8 -113 107 -139q252 187 454 301q-35 33 -123 60q-79 22 -137 22q-110 0 -203 -65 q-104 -74 -98 -179z" />
<glyph unicode="9" horiz-adv-x="1197" d="M69 723q-16 219 158 455q191 258 427 259q222 0 353 -147q126 -140 126 -364q0 -294 -170 -587q-200 -343 -487 -344q-32 0 -74 7l-8 7q-126 35 -134 128q-3 46 54 104q76 -61 137 -61q124 0 269 174q115 140 150 260q-87 -82 -158 -121q-113 -63 -269 -63 q-154 0 -252 68q-110 77 -122 225zM285 723q9 -118 156 -118q139 0 306 159t156 296q-6 82 -75 138t-152 56q-158 0 -284 -192q-120 -181 -107 -339z" />
<glyph unicode=":" horiz-adv-x="710" d="M306 325q-5 63 41.5 115t109.5 52q58 0 94 -46q32 -42 35 -103q5 -69 -34.5 -113t-108.5 -44q-55 0 -94 41t-43 98zM312 811q-5 61 45.5 122t111.5 61q127 0 136 -131q5 -72 -37 -119.5t-114 -47.5q-50 0 -94.5 33t-47.5 82z" />
<glyph unicode=";" horiz-adv-x="683" d="M180 98q-3 47 75 280q22 65 36 85q28 39 79 40q6 0 77 -8q47 -43 52 -92q3 -47 -59 -182q-52 -110 -68 -134q-50 -74 -118 -74q-69 0 -74 85zM301 879q-5 63 37 111t105 48q58 0 96 -41.5t41 -101.5q5 -65 -41 -110t-112 -45q-52 0 -87.5 43t-38.5 96z" />
<glyph unicode="&#x3c;" d="M206 695q5 291 172 581q-24 -180 -22 -299q2 -246 107 -478q120 -262 322 -379q-74 8 -160 20q-9 5 -34 11q-96 11 -198.5 94.5t-137.5 176.5l-12 32q-38 98 -37 241zM447 928q0 126 38 268q33 121 101 242q46 76 134 227q126 221 126 375q0 17 -2 32l19 1l-3 3 q351 -474 381 -928q9 -145 -26 -294q-39 -159 -122 -266q-38 -49 -140 -191q-52 -74 -71 -184l-16 -96q-79 58 -164.5 158t-131.5 188q-123 235 -123 465zM619 1245l17 -498h265q206 29 206 239q0 118 -81 191q-79 68 -199 68h-208zM803 1089q57 6 93.5 -25.5t31.5 -88.5 q-8 -80 -115 -80q0 -2 -5 96zM977 191q0 154 138 367q28 43 106 167q85 140 85 474q0 65 -2 102q-3 85 -18 276q225 -355 255 -750q3 -43 3 -83q0 -422 -344 -517l-63 -16q-13 -5 -53 -20q-65 -24 -98 -87q-9 43 -9 87z" />
<glyph unicode="=" d="M206 695q5 291 172 581q-24 -180 -22 -299q2 -246 107 -478q120 -262 322 -379q-74 8 -160 20q-9 5 -34 11q-95 11 -198 95.5t-138 175.5l-12 32q-38 98 -37 241zM447 928q0 126 38 268q33 121 101 242q46 76 134 227q126 221 126 375q0 17 -2 32l19 1l-3 3 q351 -474 381 -928q9 -145 -26 -294q-39 -159 -122 -266q-38 -49 -140 -191q-52 -74 -71 -184l-16 -96q-79 58 -164.5 158t-131.5 188q-123 235 -123 465zM619 1245l17 -498h265q206 29 206 239q0 118 -81 191q-79 68 -199 68h-208zM803 1089q57 6 93.5 -25.5t31.5 -88.5 q-8 -80 -115 -80q0 -2 -5 96zM977 191q0 154 138 367q28 43 106 167q85 140 85 474q0 65 -2 102q-3 85 -18 276q225 -355 255 -750q3 -43 3 -83q0 -422 -344 -517l-63 -16q-13 -5 -53 -20q-65 -24 -98 -87q-9 43 -9 87z" />
<glyph unicode="&#x3e;" d="M206 695q5 291 172 581q-24 -180 -22 -299q2 -246 107 -478q120 -262 322 -379q-74 8 -160 20q-9 5 -34 11q-96 11 -198.5 94.5t-137.5 176.5l-12 32q-38 98 -37 241zM447 928q0 126 38 268q33 121 101 242q46 76 134 227q126 221 126 375q0 17 -2 32l19 1l-3 3 q351 -474 381 -928q9 -145 -26 -294q-39 -159 -122 -266q-38 -49 -140 -191q-52 -74 -71 -184l-16 -96q-79 58 -164.5 158t-131.5 188q-123 235 -123 465zM619 1245l17 -498h265q206 29 206 239q0 118 -81 191q-79 68 -199 68h-208zM803 1089q57 6 93.5 -25.5t31.5 -88.5 q-8 -80 -115 -80q0 -2 -5 96zM977 191q0 154 138 367q28 43 106 167q85 140 85 474q0 65 -2 102q-3 85 -18 276q225 -355 255 -750q3 -43 3 -83q0 -422 -344 -517l-63 -16q-13 -5 -53 -20q-65 -24 -98 -87q-9 43 -9 87z" />
<glyph unicode="?" horiz-adv-x="1392" d="M219 1487q-16 228 186 424q195 189 427 189q192 0 316 -99q132 -104 145 -293q16 -228 -168 -489q-91 -124 -326 -450q-112 -156 -155 -326l-119 60q-5 20 -7 45q-9 115 85 303q63 126 193 318q147 219 198 313q112 202 106 306q-3 60 -46.5 98.5t-103.5 38.5 q-69 0 -169 -46q-93 -43 -149 -94q-88 -82 -107 -178q-9 -50 -29 -194q-8 -63 -41 -99q-25 -3 -44 -3q-181 0 -192 176zM473 178q-5 79 55 124q54 43 134 43q107 0 116 -128q5 -72 -36 -125.5t-112 -53.5q-65 0 -109.5 38.5t-47.5 101.5z" />
<glyph unicode="@" d="M206 695q5 291 172 581q-24 -180 -22 -299q2 -246 107 -478q120 -262 322 -379q-74 8 -160 20q-9 5 -34 11q-95 11 -198 95.5t-138 175.5l-12 32q-38 98 -37 241zM447 928q0 126 38 268q33 121 101 242q46 76 134 227q126 221 126 375q0 17 -2 32l19 1l-3 3 q351 -474 381 -928q9 -145 -26 -294q-39 -159 -122 -266q-38 -49 -140 -191q-52 -74 -71 -184l-16 -96q-79 58 -164.5 158t-131.5 188q-123 235 -123 465zM619 1245l17 -498h265q206 29 206 239q0 118 -81 191q-79 68 -199 68h-208zM803 1089q57 6 93.5 -25.5t31.5 -88.5 q-8 -80 -115 -80q0 -2 -5 96zM977 191q0 154 138 367q28 43 106 167q85 140 85 474q0 65 -2 102q-3 85 -18 276q225 -355 255 -750q3 -43 3 -83q0 -422 -344 -517l-63 -16q-13 -5 -53 -20q-65 -24 -98 -87q-9 43 -9 87z" />
<glyph unicode="A" horiz-adv-x="1754" d="M33 671q87 22 252 28q148 6 221 32q87 137 171 345q39 101 144 359q224 542 315 597q36 22 116 22h67q2 0 77 -4q-3 -93 -13 -383q-8 -239 -8 -374q0 -150 10 -307q2 -30 6 -110q3 -50 52 -77q25 -14 98 -54q2 -13 1 -22q0 -36 -39 -66q-11 -9 -71 -39q25 -320 180 -320 q52 0 135 52q17 -58 19 -85q1 -10 1 -19q0 -76 -58 -120q-55 -43 -148 -43q-239 0 -327 259q-25 71 -70 217q-25 0 -233 -12q-134 -8 -227 -38q-74 -150 -164 -479q-19 -6 -28 -6q-60 0 -137 56q-82 58 -87 115q-2 20 16 41q71 80 125 259q-52 0 -182 4q-96 3 -181 35z M791 756q192 17 348 36q-14 391 -20 728q-104 -216 -328 -764z" />
<glyph unicode="B" horiz-adv-x="1455" d="M41 507q-1 14 -1 31q0 186 110 798q123 684 189 747q49 48 185 48q18 0 37 -1l46 -2q-54 -169 -150 -502q299 400 549 400h13l35 -2q39 -46 98 -88q36 -25 107 -75q126 -91 137 -238q1 -11 0 -22q0 -193 -232 -401q-197 -175 -422 -261l-16 -22l-42 82q255 -35 427 -118 q246 -120 260 -315q1 -14 1 -28q0 -219 -257 -358q-224 -121 -474 -122q-276 0 -413 85q-169 106 -187 364zM279 422q0 -39 1 -64q6 -96 251 -96q173 0 367 63q238 77 238 198v8q-9 150 -306 228q-208 55 -431 55q-49 0 -92 -1q-2 -54 -16 -194q-12 -117 -12 -187v-10z M345 1044q302 33 525 185q248 169 248 411q0 17 -1 35q-9 130 -90 130h-1q-173 0 -413 -286q-227 -271 -268 -475z" />
<glyph unicode="C" horiz-adv-x="1474" d="M74 792q0 414 203 872q159 359 341 411q76 22 160 22q216 0 333 -180q95 -145 110 -378q1 -16 1 -51v-39q0 -247 -74 -428q-30 -3 -48 -3q-158 0 -171 200q-1 13 -1 28q0 80 22 218q21 130 21 211q0 21 -1 39q-6 69 -59.5 120.5t-122.5 51.5q-43 0 -78 -22 q-184 -118 -313 -549q-98 -326 -98 -575q0 -474 308 -474q192 0 401 185q175 154 296 362q94 -61 100 -140v-12q0 -147 -248 -351q-236 -194 -400 -225q-82 -16 -153 -16q-290 0 -423 232q-106 181 -106 491z" />
<glyph unicode="D" horiz-adv-x="1786" d="M154 1889l219 66q126 38 222 50q9 33 27 79q27 69 120 70q77 0 131 -63l-13 -65q348 -22 577 -154q316 -185 316 -546q0 -280 -184 -545q-165 -235 -428 -395q-284 -173 -564 -194l-7 -107q-72 -31 -118 -31h-3q-120 0 -129 152v11q0 44 12 185q43 469 215 1370 q-44 -2 -147 -23q-90 -19 -143 -19h-5l-38 1zM586 383q329 32 641 372q290 317 290 617q1 205 -146 325q-66 54 -224 101q-150 44 -244 44q-80 0 -111 -46q-39 -60 -121 -651q-79 -567 -85 -762z" />
<glyph unicode="E" horiz-adv-x="1784" d="M66 1369q-1 9 -1 18q0 207 351 390q490 255 1002 255q321 0 441 -134q0 -107 -71 -164q-195 65 -447 65q-282 0 -547 -79q-315 -95 -458 -263q-57 -68 -57 -119v-5q6 -107 272 -170q198 -47 371 -48q211 0 412 56l44 -128q-60 -83 -209 -107q-90 -13 -325 -47 q-183 -27 -288 -92q-129 -80 -181 -236q-11 -34 -12 -64q0 -5 1 -9q6 -101 143 -148q98 -34 228 -34h7q290 0 572 124.5t479 338.5q91 -68 96 -140v-10q0 -105 -156 -222q-370 -279 -881 -279q-236 0 -444 74q-291 104 -306 309q-1 10 -1 19q0 230 394 465 q-413 167 -429 384z" />
<glyph unicode="F" horiz-adv-x="1819" d="M5 1608v14q0 228 553 322q180 30 761 65l187 11q142 8 170 20q6 3 55 32q36 23 50 23h1q30 0 63 -67q29 -61 31 -93v-7q0 -59 -83 -78q-35 -8 -118 -29q-115 -55 -193 -370q-56 -228 -56 -386v-6q0 -14 2 -42.5t2 -42.5l286 12l17 -85q-50 -98 -134 -129 q-60 -22 -187 -24q-57 -178 -125 -329q-90 -198 -286 -328t-412 -130q-172 0 -287 86q-123 95 -133 262q-1 17 -1 35q0 71 19 148q32 14 59 14q52 0 189 -92q-9 -71 -8 -134v-34q3 -120 132 -120q161 0 337.5 145t196.5 302q52 57 68 169q-206 11 -279 27q-123 27 -266 113 q118 35 290 55q148 14 294 29q14 123 56 444q30 224 160 416q-1081 -43 -1214 -260q71 -47 179 -47q80 0 196 36q-22 -106 -101 -165.5t-188 -59.5q-120 0 -197.5 79.5t-85.5 198.5z" />
<glyph unicode="G" horiz-adv-x="1638" d="M63 655q0 373 170 742q178 386 466 597q99 72 197 73q32 0 51 -8q378 -158 403 -517q1 -21 1 -44q0 -87 -18 -201l-13 -15q8 -16 8 -28v-10q0 -72 -112 -72q-96 0 -143 79q41 120 41 248q0 28 -2 56q-20 287 -214 287q-167 0 -391 -443q-206 -410 -216 -622 q-1 -27 -1 -53q0 -44 3 -88q27 -379 267 -379h1q158 0 312 142q143 131 195 291q-14 2 -28 2q-60 0 -178 -16t-178 -16q-65 0 -129 13l-73 101q109 58 501 103q279 33 536 43l130 -183q-181 0 -305 -15q-158 -317 -284 -449q-200 -210 -483 -210q-260 0 -394 170 q-120 154 -120 422z" />
<glyph unicode="H" horiz-adv-x="1493" d="M-11 624q19 2 184 27l2 3q41 339 161 1144l47 53h25q170 0 181 -137q2 -25 -5 -55l-108 -488q-58 -262 -59 -500q394 25 599 55l6 8q14 180 81 663q74 539 104 597q24 46 93 46q93 0 160 -55q-121 -706 -189 -1234q144 0 251 -91l-2 -87l-56 2h-15q-102 0 -208 -39 q-27 -90 -56 -456q-205 17 -218 189q-1 8 -1 19q0 68 28 233q-156 -13 -602 -52l-4 -6q-3 -39 -23 -201q-14 -118 -14 -199q0 -74 11 -142q-38 -3 -61 -3q-173 0 -186 175q-1 18 -1 37q0 65 15 147l33 178q-85 3 -122 42.5t-51 126.5z" />
<glyph unicode="I" horiz-adv-x="935" d="M50 235q126 27 276 44l6 5q-3 74 -3 148q0 312 49 660l91 652h-92q-91 0 -145 39q-47 36 -90 123l359 46q162 21 303 21q24 0 47 -1l72 -1l93 -129q-58 -61 -159 -71q-41 -3 -158 -16l-17 -19q-98 -780 -110 -1419q19 0 55 3t55 3q50 0 98 -52q17 -19 69 -95l-46 -61 l-233 -39q-131 -22 -233 -22q-250 0 -287 181z" />
<glyph unicode="J" horiz-adv-x="998" d="M66 843q0 288 128 622q135 354 327 512l114 -24q22 -32 66 -67q57 -46 73 -63q80 -85 102 -402q8 -123 8 -258q0 -451 -92 -1061q-88 -584 -193 -661q-58 -43 -142 -43q-132 0 -212.5 73.5t-90.5 205.5q-1 13 -1 27q0 138 86 268q46 68 202 230q131 135 169 230 q-123 -50 -222 -51q-321 0 -322 462zM291 838q0 -274 125 -274q50 0 129 41t99 83q36 77 43 344q2 74 2 141q0 421 -71 544l-40 17q-128 -74 -219 -437q-68 -268 -68 -459zM359 -391q3 -44 36 -44q84 1 144 448q-180 -257 -180 -391v-13z" />
<glyph unicode="K" horiz-adv-x="1362" d="M83 206q-1 9 -1 19q0 35 8 87q13 76 12 104q6 241 56 791q57 646 94 721q24 49 107 104q161 -54 166 -123q2 -24 -16 -59q-11 -30 -24 -60q-102 -328 -107 -790q284 332 433 500q337 375 441 436q32 19 67 19q95 0 163 -91q-8 -60 -61 -93q-33 -11 -61 -32 q-99 -68 -450.5 -446.5t-416.5 -485.5q518 -514 799 -605q-5 -71 -60 -111q-48 -34 -119 -34h-4q-113 0 -399 249q-198 173 -367 312q-3 -153 -7 -278q-6 -145 -59 -269q-38 -8 -64 -8q-118 0 -130 143z" />
<glyph unicode="L" horiz-adv-x="1594" d="M35 224q0 110 223 171q162 44 320 45q175 0 356 -40q41 46 74 219q25 132 33 240q-254 -195 -509 -196q-104 0 -196 35q-128 47 -128 132q0 101 115 167l54 -14q27 -52 53 -106q25 -28 121 -28q126 0 293 84q176 90 224 195q8 19 25 192q39 397 55 470q65 287 232 338 q52 16 96 16q189 0 189 -266q0 -194 -131 -413q-44 -74 -228 -376q-2 -5 -2 -126q0 -137 -50 -331q-46 -186 -110 -318l405 -201q258 -128 419 -157l67 25q16 -33 16 -47q0 -65 -66 -106q-57 -36 -126 -36q-33 0 -399 156q-350 150 -428 191q-239 -213 -501 -213 q-151 0 -309 74q-187 88 -187 224zM279 203l5 -16q63 -72 236 -72q188 0 298 90q-173 60 -319 60q-159 0 -220 -62zM1317 1514q30 57 106 202q59 116 61 217q-153 -181 -167 -419z" />
<glyph unicode="M" horiz-adv-x="2530" d="M17 1031q0 36 29 119q91 265 258 550q203 345 380 443q17 9 45 9q52 0 129.5 -34.5t116.5 -74.5q61 -60 73 -228q4 -59 4 -113v-21q0 -194 -36 -419q307 630 459 630q28 0 69 -13q30 -9 69 -20q16 -8 43 -25q57 -72 61 -142q3 -41 3 -118q0 -172 -28 -359l-54 -353 l-6 -11l3 -8h-82q164 323 333 635q258 480 403 480q79 0 138 -55t64 -134q1 -9 1 -19q0 -58 -25 -140q-39 -132 -42 -156q-16 -101 -51 -232q-50 -191 -58 -231q-82 -417 -82 -578q0 -54 1 -82q9 -161 78 -161q6 0 61 27.5t87 27.5h2q89 0 97 -105v-11q0 -31 -14 -57 q-90 -58 -192 -58q-153 0 -243 102q-80 95 -91 252q-3 47 -4 95q0 249 68 581q20 104 137 575q-181 -273 -367 -658q-8 -16 -312 -686q-13 -28 -67 -71q-96 30 -109 40q-55 30 -60 93v8q0 34 19 110q2 5 9 50q47 260 96 572q44 280 45 462q0 52 -5 97q-328 -463 -542 -1107 q-28 -90 -110 -347q-8 -24 -33.5 -50.5t-45.5 -26.5q-61 0 -123 43q-49 33 -52 74v12q0 47 20 117l38 129l117 613q61 323 61 617q0 58 -3 101q-6 91 -28 122q-93 -5 -312 -410q-210 -386 -232 -547l-55 -61q-54 9 -98 44q-55 41 -55 92z" />
<glyph unicode="N" horiz-adv-x="1707" d="M47 1007v15q0 54 18 120q184 654 483 950q35 35 109 35q19 0 39 -10l118 -56q52 -36 71 -111q24 -97 24 -186v-7q-8 -347 -66 -642q99 250 190 437q222 447 369 447q41 0 62 -14q5 -3 39 -43q155 -58 168 -234q3 -36 3 -73q0 -95 -17 -198q-13 -74 -45 -270 q-57 -340 -73 -475q-23 -194 -23 -352q0 -67 4 -127q2 -28 19 -54q32 -20 35 -72v-12q0 -34 -14 -64q-20 -43 -59 -43q-17 0 -34 10q-169 88 -181 249q-3 43 -4 115q0 302 90 838q13 66 46 241q19 100 19 193q0 27 -2 53q-2 33 -19 60q-16 0 -50 -48q-117 -161 -203 -353 q-46 -106 -164 -376q-79 -180 -161 -432l-143 -444q-38 -31 -85 -31h-3q-36 0 -186 58q250 940 250 1740v13q0 17 -12 30q-124 -50 -445 -972q-41 -16 -71 -16q-90 0 -96 111z" />
<glyph unicode="O" horiz-adv-x="1455" d="M99 777q0 306 120 639q128 351 328 560h13q99 0 149 -43q128 87 189 87q66 0 124 -30q339 -174 377 -706q5 -66 5 -90q0 -345 -148 -663q-167 -359 -437 -473q-68 -28 -145 -28q-170 0 -335 150q-154 140 -208 312q-32 101 -32 285zM345 777q0 -140 38 -304 q16 -68 74 -142q50 -65 98 -81q32 -11 121 -11q46 0 64 8q203 83 327 416q105 282 105 580v6q0 159 -57 331q-74 227 -198 227q-173 0 -243 -252q-25 -106 -91 -381q-16 -65 -77 -65q-57 0 -101 58q-60 -228 -60 -390z" />
<glyph unicode="P" horiz-adv-x="1495" d="M-17 1699q0 30 34 56q151 118 487 225q328 104 528 104q421 0 597 -190q66 -72 88 -114q33 -65 33 -189q0 -340 -351 -592q-321 -230 -722 -274q-42 -316 -43 -407q0 -2 1 -4q0 -38 1 -71q11 -39 26 -119q-39 -41 -111 -41q-132 0 -141 134q-2 22 -2 52q0 191 60 732 q68 628 112 760q12 33 98 71q82 37 121 36h4l49 -1q-85 -484 -142 -953q255 28 536 242q291 221 291 432q0 11 -1 22q-9 140 -153 210q-112 55 -268 55q-203 0 -463 -73q-266 -72 -431 -178q-8 -6 -63 -71q-54 5 -111 46q-64 49 -64 100z" />
<glyph unicode="Q" horiz-adv-x="1436" d="M98 756q0 208 72 459q91 318 194 486q148 244 387 345q27 11 49 11q54 0 112 -83q11 -16 92 -39q22 -6 37 -19q312 -244 312 -690q0 -269 -100.5 -530t-283.5 -460q162 -61 225 -119q-9 -49 -35 -89q-33 -52 -74 -52q-65 0 -179.5 38t-172.5 38q-22 0 -66.5 -9.5 t-66.5 -9.5q-52 0 -115 63q-36 -8 -52 -8q-11 0 -31 3q-19 20 -33 63q-6 22 -32 37l-69 41q-32 19 -55 58q-115 191 -115 466zM314 715q0 -25 4 -93q19 -277 148 -301q27 -5 46 -4q5 0 16 1h20h36q27 0 81.5 -10t81.5 -10q6 5 28 23q91 74 167 223q66 131 99 267 q69 288 70 482q0 16 -5 81q-11 158 -77 285q-83 162 -205 162q-132 0 -252 -200q-258 -432 -258 -906z" />
<glyph unicode="R" horiz-adv-x="1422" d="M129 110q20 76 32 222q20 268 88 709q74 482 96 706q-47 -19 -74 -19q-46 0 -76 43q-27 36 -28 85q-2 30 8 55q254 88 501 88q258 0 476 -109q270 -135 286 -378q1 -13 1 -27q0 -151 -114 -307q-110 -151 -268 -241q-99 -57 -364 -121q314 -400 578 -577 q109 -72 109 -152q0 -57 -79 -57q-183 0 -483 301q-241 241 -377 468q-50 -249 -50 -482q0 -123 12 -251q-27 -35 -71 -50q-126 8 -203 94zM474 983q54 3 191 21q161 27 361 173q205 149 205 288q0 7 -1 14q-3 33 -14 59q-115 241 -518 241h-36l-59 -2q-104 -484 -129 -794z " />
<glyph unicode="S" horiz-adv-x="1524" d="M35 412q0 29 104 125q35 -2 132 -55q249 -135 336 -175q208 -94 353 -94h3q76 0 138 36q71 41 71 105v8q-9 117 -274 290q-317 208 -397 282q-206 192 -222 415q-1 17 -1 34q0 210 180 451q205 274 424 274q180 0 399 -118q251 -136 264 -309v-7q0 -95 -156 -95l-55 9 q-63 121 -185.5 199t-256.5 78q-140 0 -262 -197q-105 -170 -104 -313v-22q11 -180 274 -356q107 -68 378 -254q211 -150 224 -339q1 -13 1 -25q0 -154 -127 -246q-123 -88 -299 -88q-189 0 -526 106q-416 131 -416 281z" />
<glyph unicode="T" horiz-adv-x="1805" d="M-5 1687v7q0 25 13 48q170 323 1433 323q55 0 160 36.5t160 36.5q139 0 150 -164q1 -7 1 -14q0 -57 -36 -107q-22 -30 -77 -107q-19 -27 -72 -142q-95 -202 -186 -720q-49 -273 -73 -352q-52 -172 -175 -307q-164 -182 -453 -182h-3q-484 0 -506 324q-1 11 -1 21 q0 148 146 203q28 -172 83 -252q74 -110 227 -111q266 0 392 235q88 167 115 470q6 85 27 324q17 194 65 325q54 150 167 283h-410q-167 0 -389 -30q-22 -6 -195 -53q-50 -14 -222 -60q-142 -53 -142 -138v-7q3 -50 80 -50q50 0 129 25q2 -19 2 -35q0 -168 -170 -168h-2 q-110 0 -157 53q-39 46 -49 161q-14 41 -32 124z" />
<glyph unicode="U" horiz-adv-x="1468" d="M124 677q0 351 71 774q87 515 213 638q123 0 192 -77q9 -22 10 -32q2 -27 -18 -50q-27 -33 -31 -41q-85 -197 -147 -500q-57 -290 -61 -518q-4 -232 -4 -329q0 -48 1 -63q14 -180 123 -180q176 0 393 520q121 288 208 678q79 348 160 519q25 13 52 13q79 0 159 -71 q-221 -649 -221 -1142q0 -169 44 -358q38 -156 43 -223q2 -20 2 -37q0 -106 -59 -107q-191 0 -243 582q-219 -545 -578 -545q-151 0 -208 94q-80 137 -97 369q-3 44 -4 86z" />
<glyph unicode="V" horiz-adv-x="1233" d="M115 1801q0 44 13 69q24 46 146 88q14 5 44 5q39 0 71 -47q-6 -89 -6 -180q0 -105 8 -214q17 -252 80 -536q41 -176 121 -529q274 657 452 1117q25 72 92 261q58 165 118 248q32 44 118 44q124 -1 129 -81v-6q0 -39 -34 -85l-62 -83q-24 -55 -140 -333l-458 -1074 q-87 -202 -197 -391q-11 -1 -22 -1q-136 0 -177 96q-57 132 -97 392q-16 113 -67 409q-22 101 -77 363q-36 178 -49 364z" />
<glyph unicode="W" horiz-adv-x="1788" d="M85 1941q43 80 162 80q69 0 123 -33l5 -23q3 -14 -10 -48q-13 -38 -14 -49q-2 -20 -2 -58q0 -88 13 -271q28 -399 133 -1025q55 221 214 712q110 340 110 353v5q0 113 122 113q95 0 165 -59q20 -685 162 -1198q96 323 284 1044q32 134 64 269q49 181 101 241q25 28 90 29 q83 0 83 -92q0 -76 -168 -679q-61 -221 -214 -743q-16 -39 -54 -147q-16 -71 -33 -143q-24 -82 -71 -123q-38 -8 -77 -8q-121 0 -161 55q-72 102 -205 979q-54 -145 -151 -504q-16 -68 -47 -205q-82 -334 -246 -334q-93 0 -124 56q-9 16 -29 144.5t-30 164.5 q-35 129 -44 174q-93 440 -119 910q-2 98 -8 353q0 20 -24 60z" />
<glyph unicode="X" horiz-adv-x="1222" d="M25 162q14 33 386 801q-46 126 -164 453q-87 246 -102 470q25 35 82.5 62.5t101.5 27.5q16 0 41 -7q58 -345 189 -707q28 43 128 197q5 8 190 320q113 191 208 305q20 5 41 5q36 0 178 -28l-340 -574q-280 -473 -280 -509q0 -21 28 -72q106 -184 114 -196 q66 -110 124 -187q30 -39 238 -287q13 -16 14 -36v-12q0 -81 -77 -81q-38 0 -90 32q-169 101 -276 253q-58 83 -211 304q-85 -159 -107 -201q-57 -112 -94 -211q-16 -63 -48 -167q-9 -30 -40 -56t-62 -26q-54 0 -172 127z" />
<glyph unicode="Y" horiz-adv-x="1356" d="M44 696q0 532 159 1157q61 36 144 36q141 0 141 -89q0 -34 -28 -78q-39 -63 -46 -79q-68 -197 -108 -472q-38 -260 -38 -484q0 -440 175 -440q110 0 238 218q172 293 294 718q65 224 175 767q35 39 93 40q89 0 150 -60q-19 -79 -68 -307q-80 -405 -161 -1549 q-32 -452 -126 -640q-153 -305 -539 -305h-3q-150 0 -242 42h-5q-65 0 -114.5 50t-54.5 114v6q0 31 18 73q210 -83 381 -84q54 0 110 16q276 77 323 517q11 63 36 244q2 13 44 540q-98 -238 -218 -401q-164 -221 -330 -221q-400 0 -400 671z" />
<glyph unicode="Z" horiz-adv-x="1573" d="M27 221v9q0 28 11 50q41 83 315 347q98 93 362 348q24 22 726 737q-655 -17 -1030 -159q-28 -11 -127 -115q-32 -8 -59 -6l-36 2q-32 93 -35 157v12q0 88 82 122q124 52 309 76q52 14 200 47q438 90 797 90q273 -1 282 -144v-7q0 -69 -97 -153q-74 -65 -78 -68 q-295 -262 -442 -408q-57 -60 -219 -229q-80 -80 -285 -286q-167 -169 -270 -298q703 113 1168 151q14 -41 15 -64q1 -17 1 -32q0 -42 -10 -64q-19 -39 -79 -52q-71 -14 -242 -30q-154 -14 -246 -27q-277 -38 -430 -69q-27 -5 -211 -52q-131 -33 -210 -34q-153 0 -162 149z " />
<glyph unicode="[" d="M206 695q5 291 172 581q-24 -180 -22 -299q2 -246 107 -478q120 -262 322 -379q-74 8 -160 20q-9 5 -34 11q-95 11 -198 95.5t-138 175.5l-12 32q-38 98 -37 241zM447 928q0 126 38 268q33 121 101 242q46 76 134 227q126 221 126 375q0 17 -2 32l19 1l-3 3 q351 -474 381 -928q9 -145 -26 -294q-39 -159 -122 -266q-38 -49 -140 -191q-52 -74 -71 -184l-16 -96q-79 58 -164.5 158t-131.5 188q-123 235 -123 465zM619 1245l17 -498h265q206 29 206 239q0 118 -81 191q-79 68 -199 68h-208zM803 1089q57 6 93.5 -25.5t31.5 -88.5 q-8 -80 -115 -80q0 -2 -5 96zM977 191q0 154 138 367q28 43 106 167q85 140 85 474q0 65 -2 102q-3 85 -18 276q225 -355 255 -750q3 -43 3 -83q0 -422 -344 -517l-63 -16q-13 -5 -53 -20q-65 -24 -98 -87q-9 43 -9 87z" />
<glyph unicode="\" d="M206 695q5 291 172 581q-24 -180 -22 -299q2 -246 107 -478q120 -262 322 -379q-74 8 -160 20q-9 5 -34 11q-95 11 -198 95.5t-138 175.5l-12 32q-38 98 -37 241zM447 928q0 126 38 268q33 121 101 242q46 76 134 227q126 221 126 375q0 17 -2 32l19 1l-3 3 q351 -474 381 -928q9 -145 -26 -294q-39 -159 -122 -266q-38 -49 -140 -191q-52 -74 -71 -184l-16 -96q-79 58 -164.5 158t-131.5 188q-123 235 -123 465zM619 1245l17 -498h265q206 29 206 239q0 118 -81 191q-79 68 -199 68h-208zM803 1089q57 6 93.5 -25.5t31.5 -88.5 q-8 -80 -115 -80q0 -2 -5 96zM977 191q0 154 138 367q28 43 106 167q85 140 85 474q0 65 -2 102q-3 85 -18 276q225 -355 255 -750q3 -43 3 -83q0 -422 -344 -517l-63 -16q-13 -5 -53 -20q-65 -24 -98 -87q-9 43 -9 87z" />
<glyph unicode="]" d="M206 695q5 291 172 581q-24 -180 -22 -299q2 -246 107 -478q120 -262 322 -379q-74 8 -160 20q-9 5 -34 11q-95 11 -198 95.5t-138 175.5l-12 32q-38 98 -37 241zM447 928q0 126 38 268q33 121 101 242q46 76 134 227q126 221 126 375q0 17 -2 32l19 1l-3 3 q351 -474 381 -928q9 -145 -26 -294q-39 -159 -122 -266q-38 -49 -140 -191q-52 -74 -71 -184l-16 -96q-79 58 -164.5 158t-131.5 188q-123 235 -123 465zM619 1245l17 -498h265q206 29 206 239q0 118 -81 191q-79 68 -199 68h-208zM803 1089q57 6 93.5 -25.5t31.5 -88.5 q-8 -80 -115 -80q0 -2 -5 96zM977 191q0 154 138 367q28 43 106 167q85 140 85 474q0 65 -2 102q-3 85 -18 276q225 -355 255 -750q3 -43 3 -83q0 -422 -344 -517l-63 -16q-13 -5 -53 -20q-65 -24 -98 -87q-9 43 -9 87z" />
<glyph unicode="^" d="M206 695q5 291 172 581q-24 -180 -22 -299q2 -246 107 -478q120 -262 322 -379q-74 8 -160 20q-9 5 -34 11q-95 11 -198 95.5t-138 175.5l-12 32q-38 98 -37 241zM447 928q0 126 38 268q33 121 101 242q46 76 134 227q126 221 126 375q0 17 -2 32l19 1l-3 3 q351 -474 381 -928q9 -145 -26 -294q-39 -159 -122 -266q-38 -49 -140 -191q-52 -74 -71 -184l-16 -96q-79 58 -164.5 158t-131.5 188q-123 235 -123 465zM619 1245l17 -498h265q206 29 206 239q0 118 -81 191q-79 68 -199 68h-208zM803 1089q57 6 93.5 -25.5t31.5 -88.5 q-8 -80 -115 -80q0 -2 -5 96zM977 191q0 154 138 367q28 43 106 167q85 140 85 474q0 65 -2 102q-3 85 -18 276q225 -355 255 -750q3 -43 3 -83q0 -422 -344 -517l-63 -16q-13 -5 -53 -20q-65 -24 -98 -87q-9 43 -9 87z" />
<glyph unicode="`" d="M206 695q5 291 172 581q-24 -180 -22 -299q2 -246 107 -478q120 -262 322 -379q-74 8 -160 20q-9 5 -34 11q-95 11 -198 95.5t-138 175.5l-12 32q-38 98 -37 241zM447 928q0 126 38 268q33 121 101 242q46 76 134 227q126 221 126 375q0 17 -2 32l19 1l-3 3 q351 -474 381 -928q9 -145 -26 -294q-39 -159 -122 -266q-38 -49 -140 -191q-52 -74 -71 -184l-16 -96q-79 58 -164.5 158t-131.5 188q-123 235 -123 465zM619 1245l17 -498h265q206 29 206 239q0 118 -81 191q-79 68 -199 68h-208zM803 1089q57 6 93.5 -25.5t31.5 -88.5 q-8 -80 -115 -80q0 -2 -5 96zM977 191q0 154 138 367q28 43 106 167q85 140 85 474q0 65 -2 102q-3 85 -18 276q225 -355 255 -750q3 -43 3 -83q0 -422 -344 -517l-63 -16q-13 -5 -53 -20q-65 -24 -98 -87q-9 43 -9 87z" />
<glyph unicode="a" horiz-adv-x="827" d="M-50 293q0 170 63 366q82 255 226 348q30 19 71 19q85 0 145 -67q38 16 76 16q65 0 121 -53l-69 -320q-37 -170 -37 -284q0 -23 2 -44q6 -85 16 -90q88 46 189 281q17 41 142 337q24 9 46 9h2q41 0 83 -34q-32 -221 -137 -452q-142 -310 -305 -311q-143 0 -215 128 q-96 -139 -178 -139q-222 0 -238 227q-3 47 -3 63zM158 172q5 2 11 4q83 80 151 303q58 188 58 308q0 15 -1 29q-2 27 -13 27q-47 0 -98 -117q-108 -248 -108 -460q0 -32 3 -60v-23q-3 -6 -3 -11z" />
<glyph unicode="b" horiz-adv-x="702" d="M-20 490q0 421 162 1100q11 58 41 208q24 113 75 193q27 8 56 8q142 0 159 -94q-262 -792 -270 -1264l-6 -343q11 -140 38 -140q25 0 67 148q37 130 38 180q0 7 -1 12q-118 72 -126 200q-1 8 -1 16q0 80 54 132q59 58 150 57q128 0 142 -194q6 -83 61 -84q88 0 194 87 q17 -53 19 -83q1 -8 1 -15q0 -90 -93 -127q-58 -24 -182 -33q-27 -49 -62 -172q-33 -115 -61 -161q-49 -79 -147 -119q-19 -8 -49 -8q-123 0 -190 101q-55 82 -63 214q-6 101 -6 181z" />
<glyph unicode="c" horiz-adv-x="641" d="M-16 416q0 154 63 353q91 285 241 285q90 0 153 -93q55 -82 62 -178q1 -17 1 -32q0 -165 -139 -165q-88 0 -88 131q-91 -132 -91 -309q0 -28 1 -50q13 -173 101 -174q165 0 257 147q32 50 118 290q61 170 144 198q64 -17 69 -82v-5q0 -34 -24 -119q-170 -600 -501 -600 q-176 0 -275 115q-91 109 -92 288z" />
<glyph unicode="d" horiz-adv-x="793" d="M-87 302q0 228 141 462q44 82 88 162q65 106 120 126q58 325 107 517q77 302 184 487q31 53 120 53h3q20 -14 63 -70q106 -44 116 -207q1 -16 1 -33q0 -190 -127 -610l-203 -664q-6 -20 -6 -51q3 -35 61.5 -156t77.5 -121q5 5 11 13l17 15q91 83 173 278q33 77 109 313 h11q69 0 110 -35q6 -13 19 -37q-28 -233 -139 -449q-142 -277 -329 -278q-117 0 -200 84q-142 -132 -271 -133q-236 0 -255 281q-2 24 -2 53zM117 184q5 -67 33 -67h1q49 0 118 92.5t74 146.5q2 27 2 62q0 59 -6 140q-13 147 -14 203q-102 -85 -163 -265q-47 -141 -47 -267 q0 -23 2 -45zM488 1076q121 410 153 681q-107 -252 -153 -681z" />
<glyph unicode="e" horiz-adv-x="656" d="M-17 468q0 306 171 551q60 85 134 85q46 0 153 -82.5t110 -125.5q1 -18 1 -37q0 -150 -79 -309q-102 -203 -254 -203q-8 0 -16 1q-2 -46 -1 -50q6 -93 96 -93q176 0 409 639q32 17 55 18q68 0 76 -98q1 -8 1 -16q0 -21 -6 -42q-63 -241 -181 -427q-162 -254 -354 -254 q-315 0 -315 443zM219 542q87 25 113 213l18 118q-102 -58 -131 -331z" />
<glyph unicode="f" horiz-adv-x="615" d="M-102 -318q0 273 96 825l134 771q19 93 37 184q22 115 22 184q-2 113 100 114q91 0 142 -68l6 2q8 -14 14 -43q2 -22 -14 -60q-11 -27 -25 -63l-182 -795q-110 -480 -124 -1206v-13q0 -45 11 -106q17 -99 46 -100q41 0 93 81q124 191 124 540q0 191 -33 271q-6 16 -44 35 q-28 11 -54 22q-93 43 -99 156v14q0 104 112 104q106 0 175 -87h20q66 41 111 120q27 49 69 151q33 79 52 111q30 13 53 12q75 0 81 -90v-10q0 -100 -111 -264q-110 -161 -207 -211l4 6v4q52 -85 66 -290q5 -65 5 -100q0 -402 -213 -694q-43 -58 -133 -59q-301 0 -330 401 q-4 55 -4 123v28z" />
<glyph unicode="g" horiz-adv-x="875" d="M-159 211q0 276 187 558q158 238 304 238q90 0 161 -93q16 8 39 8q47 0 94 -27t58 -69q-27 -101 -93 -363q-47 -187 -59 -372q241 198 371 612l28 3q7 1 14 1q81 0 88 -118q1 -9 1 -18q0 -164 -194 -412q-147 -187 -333 -345q-13 -11 -13 -108q0 -104 15 -309 q1 -12 1 -24q0 -113 -80 -195q-87 -89 -216 -89q-255 0 -255 284q0 22 22 88q47 142 169 274q140 153 168 204q14 24 14 64q0 9 -1 19q-2 22 -2 27q-115 -118 -238 -118q-106 0 -174 61.5t-75 165.5q-1 18 -1 36v17zM60 169q3 -38 16 -63q16 0 22 3q118 60 216 283 q82 190 82 329q0 14 -1 27q-2 14 -3 29l-4 4l-30 4q-117 -65 -215 -275q-84 -182 -84 -313q0 -15 1 -28zM169 -673q5 -60 53 -60q50 0 71 90q12 55 12 97q0 13 -1 25q0 3 -17 130q-118 -150 -118 -267v-15z" />
<glyph unicode="h" horiz-adv-x="877" d="M-19 153q0 83 52 586q76 731 200 1252q33 28 84 29q72 0 157 -48l-154 -702q-77 -348 -104 -706q80 186 140 285q43 71 112 71q22 0 58 -8q43 -9 58 -11q44 -22 63 -49q2 -9 4 -45q1 -15 1 -30q0 -85 -23 -208q-27 -141 -27 -213q0 -14 1 -25q2 -19 10 -58q22 -20 30 -21 q5 3 12 13l19 15q102 85 175 273q36 106 112 315q28 9 47 9q71 0 77 -85q1 -16 1 -33q0 -144 -85 -337q-95 -216 -220 -299q-60 -39 -149 -40q-217 0 -237 256q-1 17 -1 37q0 53 9 131l-1 -3q-22 -52 -84 -200q-82 -194 -157 -246q-104 33 -180 95z" />
<glyph unicode="i" horiz-adv-x="467" d="M-41 213q-2 31 -2 64q-1 111 23 246q30 175 83 303l36 26q22 6 49 7q113 0 120 -90v-9q0 -23 -8 -56q-85 -348 -85 -472q0 -30 1 -60l8 -7q6 -3 13 -3q9 0 13 5q95 76 168 216q14 27 109 255q38 93 86 175h9q87 0 102 -76q-52 -186 -118 -381q-68 -200 -248 -328 q-53 -37 -123 -37h-4q-217 0 -232 222zM39 1035q-1 6 -1 12q0 51 40 89q44 42 103 42q85 0 144 -67q2 -11 4 -27q1 -8 0 -15q0 -67 -39 -113q-44 -50 -120 -50q-52 0 -89 37.5t-42 91.5z" />
<glyph unicode="j" horiz-adv-x="426" d="M-389 -715q-1 12 -1 25q0 265 379 827q-19 28 -22 68q-2 27 -2 63q0 84 10 216q14 189 36 272q16 60 180 82q72 -41 77 -93v-6q0 -37 -29 -200q-28 -161 -72 -440q205 203 329 632q6 19 30.5 42.5t43.5 23.5h2q25 0 71 -31v-14q0 -233 -167 -508q-96 -158 -333 -446 q6 -13 7 -28q3 -13 0 -32q-46 -337 -65 -401q-76 -265 -247 -265q-24 0 -63 13q-44 14 -63 15q-91 58 -101 185zM-175 -673q0 -32 2 -49l3 -17q79 46 118 473q-123 -221 -123 -407zM14 1027q-1 7 -1 14q0 56 38 99q42 49 107 49h3q145 0 153 -97q1 -8 1 -16q0 -68 -45 -124 q-49 -62 -125 -62q-54 0 -90 41t-41 96z" />
<glyph unicode="k" horiz-adv-x="762" d="M-72 131v8q0 48 28 228q91 591 279 1358q25 104 115 433q33 13 77 13q137 0 137 -114q0 -31 -44 -171l-139 -441q-87 -276 -115 -440q115 121 222 121q65 0 147 -77t87 -142q1 -10 1 -20q0 -128 -107 -263q-106 -134 -244 -189q131 -117 183 -117q140 0 357 594 q35 10 102 10h12q25 -43 25 -78q0 -44 -57 -220q-158 -492 -476 -492q-110 0 -345 210q-6 -17 -17 -162q-8 -98 -60 -148q-24 -6 -44 -7q-117 0 -124 106zM228 591l52 -5q96 49 161 154.5t71 215.5l-5 2q-154 -98 -279 -359v-8z" />
<glyph unicode="l" horiz-adv-x="557" d="M28 487v20q0 68 7 341q16 83 30 174q47 318 77 448q57 244 149 422q44 83 112 84q65 0 92 -56q49 -30 84 -91t40 -121q3 -44 3 -66q0 -216 -91 -500q-35 -109 -178 -469q-35 -68 -88 -210q-7 -30 -7 -74q0 -24 2 -53q16 -219 99 -219q74 0 178 244q87 203 110 335 q35 46 62 46q33 0 64.5 -20.5t33.5 -50.5q1 -15 1 -30q0 -167 -131 -409q-154 -290 -318 -290q-187 0 -268 200q-49 121 -63 345zM265 1021l14 -2q137 421 165 752q-130 -350 -179 -750z" />
<glyph unicode="m" horiz-adv-x="1235" d="M20 43q8 430 46 770q57 35 125 35q58 0 100 -54q-17 -104 -39 -307q91 192 178 354q50 13 98 13q46 0 97 -13q30 -49 34 -107q1 -10 1 -24q0 -50 -9 -140q65 109 152 238q14 20 82 41q55 -17 85 -33q55 -28 57 -61q1 -8 1 -18q0 -75 -36 -219q-36 -149 -36 -229v-15 q2 -24 7 -49q6 -14 29 -14h2l5 2q95 91 173 253q27 55 120 290q6 17 29.5 38.5t41.5 21.5q75 0 94 -74q-112 -594 -417 -690q-14 -5 -33 -5q-123 -1 -197 83q-70 79 -70 197v13l-154 -272h-9q-57 0 -103 23q-60 30 -63 89q-1 17 -1 40q0 63 6 174q-58 -129 -183 -389 q-71 8 -213 38z" />
<glyph unicode="n" horiz-adv-x="844" d="M-19 273q0 509 109 617q16 6 38 6q123 0 127 -83q1 -10 1 -21q0 -32 -7 -69q-24 -134 -46 -288q69 143 214 433q24 13 65 13q143 0 150 -87q1 -7 1 -14q0 -33 -12 -71q-8 -28 -24 -85q-31 -131 -31 -275q0 -53 4 -108q2 -30 13 -41h12q19 0 29 8q109 98 162 261 q25 83 93 300q14 44 82 44l27 -3l38 -41q-19 -235 -111 -451q-123 -290 -304 -290q-262 0 -260 286l-126 -279q-30 -19 -67 -19q-54 0 -145 42l-27 48q-5 65 -5 167z" />
<glyph unicode="o" horiz-adv-x="694" d="M-41 354q0 302 143 517q91 137 185 137q66 0 154 -80q6 -25 8 -60q117 -101 131 -295q3 -41 3 -66q0 -170 -68 -301q-98 -187 -296 -187q-137 0 -205 104q-55 87 -55 231zM170 375q0 -93 17 -158q13 -30 59 -44q86 37 119 306q-54 68 -64 83q-32 50 -35 100q-1 14 -1 31 t1 38q-96 -142 -96 -356z" />
<glyph unicode="p" horiz-adv-x="975" d="M-58 -777q-4 50 -4 105q0 63 5 132l16 233q5 98 24 444q3 60 17 361q9 211 41 353q13 57 96 66q44 0 134 6q3 -43 6 -75q115 219 229 219q32 0 66 -21q118 -71 160 -138.5t53 -204.5q2 -20 1 -57q0 -236 -143 -471q142 39 242 265q36 83 130 296l18 42h26q39 0 89 -39 q-3 -257 -204 -556q-46 -69 -181.5 -139.5t-218.5 -70.5q-25 0 -49 14q-151 14 -159 16q-93 14 -149 54q1 -17 1 -36t-1 -40q-17 -225 -25 -784q0 -50 -8 -87q-38 -30 -83 -30q-19 0 -56 4t-56 4q-13 76 -17 135zM254 287q5 -77 85 -77q36 0 56 18q90 83 139 214 q40 110 40 215q0 20 -1 39q-5 65 -25 131l-33 10q-80 -43 -174 -247q-87 -190 -87 -289v-14z" />
<glyph unicode="q" horiz-adv-x="734" d="M-9 285q0 176 75 392q106 304 279 304q72 0 131 -63l39 30q19 14 57 15q52 0 131 -40q-106 -394 -182 -765q118 35 163 252q9 52 38 185q25 109 86 171l65 3h6q47 0 84 -49q-6 -69 -84 -306q-83 -255 -126 -279q-91 -102 -180 -149q95 -164 95 -440q0 -162 -44 -274 q-61 -157 -195 -157h-2q11 0 -2 0q-13 2 -36 1h-42q-79 58 -93 268q-4 60 -4 127q0 130 16 287q0 3 29 191q-39 -13 -93 -13q-128 0 -177 96q-34 67 -34 205v8zM210 153l9 -3q88 69 153 271q51 161 51 278q0 18 -1 35q-3 44 -12 68l-11 5q-107 -82 -158 -298 q-32 -140 -32 -293q0 -31 1 -63zM444 -555q44 103 44 205q0 16 -1 32q-2 22 -8 60q-22 -71 -35 -297z" />
<glyph unicode="r" horiz-adv-x="701" d="M5 775q-1 13 -1 26q0 73 29 140q44 100 127 100h2q109 0 117 -112v-11q0 -54 -25 -135q17 19 50 52l16 2q5 1 10 1q43 0 89 -40q52 -44 55 -91v-7q0 -52 -38 -184q-37 -126 -37 -194v-16q5 -66 50 -95q167 159 274 556q9 13 51 43q5 3 23 19q77 -63 80 -120q1 -11 1 -22 q0 -153 -139 -389q-158 -269 -304 -270q-115 0 -180 107q-52 85 -61 212q-2 31 -2 60q0 105 30 195q-33 -13 -66 -13q-139 0 -151 186z" />
<glyph unicode="s" horiz-adv-x="628" d="M-180 240q0 22 43 110q113 235 135 288q72 172 72 280q0 11 -1 21v13q0 119 147 119q35 0 75 -27.5t41 -60.5q-9 -47 -14 -142q6 -93 66 -304q50 -178 56 -255q68 85 111 189q66 156 164 356h9q88 0 106 -76q-33 -106 -123 -378q-69 -197 -250 -327q-39 -28 -247 -29 q-95 0 -144 37q-36 27 -86 115l-12 -11q-148 2 -148 82zM112 251q31 -38 50 -38q51 0 51 74v14q-5 76 -46 225q-88 -169 -88 -214q0 -20 33 -61z" />
<glyph unicode="t" horiz-adv-x="559" d="M-85 1383q0 3 2 36q50 0 121 8q30 3 107 11q22 49 38 126q19 95 30 131q58 192 159 192q17 0 104 -28q28 -28 31 -69q2 -24 -8 -43q-50 -98 -94 -309q24 0 71 9.5t71 9.5l60 -30q90 -46 94 -135l2 -33l-344 -14q-101 -427 -101 -771q0 -228 49 -228q85 0 194 261 q35 85 118 345q30 17 65 18q13 0 39 -2t39 -2q-3 -227 -118 -480q-139 -306 -332 -306q-241 0 -266 356q-5 66 -5 123q0 186 76 684l-51 9l21 10q-164 25 -172 121z" />
<glyph unicode="u" horiz-adv-x="915" d="M-27 318q0 233 98 476q39 19 68 19q17 0 121 -44q24 -30 25 -47q0 -6 -20 -67q-92 -271 -92 -394v-17q3 -41 21 -61l27 6q101 126 157 296q41 121 82 331q9 47 65 112q28 3 47 3q60 0 112 -33q9 -36 11 -52v-12q0 -36 -14 -90q-22 -83 -26 -101l-26 -181 q-13 -84 -13 -145q0 -22 2 -40q5 -60 23 -99q17 -5 29 -5h1l3 2q85 87 167 250.5t96 281.5q46 54 76 54q39 0 85 -36q6 -19 14 -57q0 -9 -3 -24q-54 -232 -146 -390q-137 -233 -322 -234q-180 0 -219 164q-112 -162 -220 -162q-98 0 -159.5 66t-67.5 166q-2 27 -2 64z" />
<glyph unicode="v" horiz-adv-x="735" d="M-8 564q-4 59 -4 109q0 135 31 208q20 47 99 47q66 0 123 -38q-31 -127 -31 -263q0 -43 3 -87q8 -121 39 -269q132 277 131 306q-2 19 -28.5 80t-28.5 91q-1 7 -1 14q0 69 52 139q58 83 132 84q22 0 80 -8q57 -49 62 -118q1 -8 0 -17q0 -38 -10 -86l-22 -101h4 q93 0 174 84q27 6 69 6q11 -29 13 -57q1 -7 1 -13q0 -97 -113 -150q-91 -44 -206 -48q-3 -8 -106 -215q-71 -143 -124 -191q-24 -20 -79 -21q-83 0 -120 43q-117 137 -140 471z" />
<glyph unicode="w" horiz-adv-x="1307" d="M-17 351q-1 12 -1 25q0 92 37 248q50 209 123 209h1q137 0 145 -94q2 -25 -12 -62t-15 -53t-33 -167q-15 -72 -15 -136q0 -17 1 -33q3 -57 22 -96h13q67 46 121 154q52 104 52 185v6v31q0 77 8 157q25 102 143 102q74 0 103 -53q-13 -148 -14 -306q0 -30 1 -60 q2 -139 92 -205q58 20 114 106q50 76 50 132q0 7 -1 14q0 11 -48.5 94t-51.5 121q-1 8 -1 16q0 70 46 158q57 110 133 111q71 0 116 -66q38 -55 44 -133v-7q0 -38 -14 -209q55 2 233 123q14 -36 16 -61v-12q0 -84 -67 -152q-72 -74 -163 -74q-16 0 -61 9l-98 -201 q-71 -107 -188 -107q-49 0 -133 22q-93 24 -126 47q-22 16 -41 49q-135 -142 -234 -142q-126 0 -209 94q-79 88 -88 216z" />
<glyph unicode="x" horiz-adv-x="838" d="M-8 572q74 33 80 74v7q0 22 -6 111q-1 10 -1 19q0 66 31 113q39 60 117 60q24 0 91 -8q27 -93 87 -269q44 93 148 266q19 24 74 24l28 -3q47 -56 47 -105q0 -33 -102 -234q-99 -195 -98 -213q0 -25 52 -122t76 -123q83 8 164 234q0 2 97 304q5 16 31 36.5t42 20.5 q23 0 91 -39q-14 -258 -105 -467q-124 -282 -333 -282q-77 0 -140 63q-22 22 -94 128q-33 -71 -63 -124q-33 -60 -104 -90q-41 25 -126 72q-5 16 -7 36v7q0 38 30 80q77 104 144 252q-16 55 -33 85q-97 -56 -145 -56h-2q-16 0 -46 3q0 63 -6 83z" />
<glyph unicode="y" horiz-adv-x="857" d="M-118 -703q-1 11 -1 22q0 134 121 328q25 41 220 309q-38 -6 -72 -6q-206 0 -226 252q-1 13 -1 28q0 94 33 257q41 198 96 264q19 22 79 23q121 0 129 -111q0 -8 -24 -80q-107 -326 -107 -437v-11q2 -30 10 -48h11q145 88 225 290q36 91 99 363q0 39 21 112q30 49 94 49 q118 0 159 -93q-118 -299 -260 -822q236 238 311 427q41 106 44 108q25 30 121 34q8 -43 10 -56q1 -16 1 -32q0 -183 -168 -376l-300 -343q-32 -217 -67 -395q-60 -287 -208 -287q-124 0 -221 50q-120 63 -129 181zM98 -726q2 -17 4 -22q5 -9 19 -11q102 50 152 449 q-176 -236 -176 -397q0 -10 1 -19z" />
<glyph unicode="z" horiz-adv-x="814" d="M-169 202q8 260 109 458q128 252 359 252q284 0 304 -282q1 -20 1 -41q0 -162 -90 -337q-96 -183 -249 -301q24 -9 85 -74q19 19 61 52q55 25 126 74q6 14 30 40q22 16 52 15h3q45 0 101 -26q-9 -126 -134 -197q-35 -19 -90 -54q-43 -32 -63 -80v-2q0 -38 19 -115 q22 -83 24 -118q1 -23 1 -46q0 -128 -44 -211q-65 -123 -215 -123q-213 0 -226 208v7q0 109 180 393l33 52q-5 44 -104 82q-87 33 -142 33q-16 0 -27 -3q-25 44 -28 76v6q0 66 126 98q172 43 269 224q77 144 77 306q0 22 -1 45q-8 121 -55 121q-120 0 -236 -272 q145 -6 145 -68q0 -54 -96 -148q-100 -98 -155 -98q-74 0 -150 54zM197 -707q2 -22 17 -33q66 60 66 127q0 13 -3 25q8 30 8 49q0 8 -1 14l-4 16q-83 -119 -83 -190v-8z" />
<glyph unicode="{" d="M206 695q5 291 172 581q-24 -180 -22 -299q2 -246 107 -478q120 -262 322 -379q-74 8 -160 20q-9 5 -34 11q-95 11 -198 95.5t-138 175.5l-12 32q-38 98 -37 241zM447 928q0 126 38 268q33 121 101 242q46 76 134 227q126 221 126 375q0 17 -2 32l19 1l-3 3 q351 -474 381 -928q9 -145 -26 -294q-39 -159 -122 -266q-38 -49 -140 -191q-52 -74 -71 -184l-16 -96q-79 58 -164.5 158t-131.5 188q-123 235 -123 465zM619 1245l17 -498h265q206 29 206 239q0 118 -81 191q-79 68 -199 68h-208zM803 1089q57 6 93.5 -25.5t31.5 -88.5 q-8 -80 -115 -80q0 -2 -5 96zM977 191q0 154 138 367q28 43 106 167q85 140 85 474q0 65 -2 102q-3 85 -18 276q225 -355 255 -750q3 -43 3 -83q0 -422 -344 -517l-63 -16q-13 -5 -53 -20q-65 -24 -98 -87q-9 43 -9 87z" />
<glyph unicode="|" d="M206 695q5 291 172 581q-24 -180 -22 -299q2 -246 107 -478q120 -262 322 -379q-74 8 -160 20q-9 5 -34 11q-95 11 -198 95.5t-138 175.5l-12 32q-38 98 -37 241zM447 928q0 126 38 268q33 121 101 242q46 76 134 227q126 221 126 375q0 17 -2 32l19 1l-3 3 q351 -474 381 -928q9 -145 -26 -294q-39 -159 -122 -266q-38 -49 -140 -191q-52 -74 -71 -184l-16 -96q-79 58 -164.5 158t-131.5 188q-123 235 -123 465zM619 1245l17 -498h265q206 29 206 239q0 118 -81 191q-79 68 -199 68h-208zM803 1089q57 6 93.5 -25.5t31.5 -88.5 q-8 -80 -115 -80q0 -2 -5 96zM977 191q0 154 138 367q28 43 106 167q85 140 85 474q0 65 -2 102q-3 85 -18 276q225 -355 255 -750q3 -43 3 -83q0 -422 -344 -517l-63 -16q-13 -5 -53 -20q-65 -24 -98 -87q-9 43 -9 87z" />
<glyph unicode="}" d="M206 695q5 291 172 581q-24 -180 -22 -299q2 -246 107 -478q120 -262 322 -379q-74 8 -160 20q-9 5 -34 11q-95 11 -198 95.5t-138 175.5l-12 32q-38 98 -37 241zM447 928q0 126 38 268q33 121 101 242q46 76 134 227q126 221 126 375q0 17 -2 32l19 1l-3 3 q351 -474 381 -928q9 -145 -26 -294q-39 -159 -122 -266q-38 -49 -140 -191q-52 -74 -71 -184l-16 -96q-79 58 -164.5 158t-131.5 188q-123 235 -123 465zM619 1245l17 -498h265q206 29 206 239q0 118 -81 191q-79 68 -199 68h-208zM803 1089q57 6 93.5 -25.5t31.5 -88.5 q-8 -80 -115 -80q0 -2 -5 96zM977 191q0 154 138 367q28 43 106 167q85 140 85 474q0 65 -2 102q-3 85 -18 276q225 -355 255 -750q3 -43 3 -83q0 -422 -344 -517l-63 -16q-13 -5 -53 -20q-65 -24 -98 -87q-9 43 -9 87z" />
<glyph unicode="~" d="M206 695q5 291 172 581q-24 -180 -22 -299q2 -246 107 -478q120 -262 322 -379q-74 8 -160 20q-9 5 -34 11q-95 11 -198 95.5t-138 175.5l-12 32q-38 98 -37 241zM447 928q0 126 38 268q33 121 101 242q46 76 134 227q126 221 126 375q0 17 -2 32l19 1l-3 3 q351 -474 381 -928q9 -145 -26 -294q-39 -159 -122 -266q-38 -49 -140 -191q-52 -74 -71 -184l-16 -96q-79 58 -164.5 158t-131.5 188q-123 235 -123 465zM619 1245l17 -498h265q206 29 206 239q0 118 -81 191q-79 68 -199 68h-208zM803 1089q57 6 93.5 -25.5t31.5 -88.5 q-8 -80 -115 -80q0 -2 -5 96zM977 191q0 154 138 367q28 43 106 167q85 140 85 474q0 65 -2 102q-3 85 -18 276q225 -355 255 -750q3 -43 3 -83q0 -422 -344 -517l-63 -16q-13 -5 -53 -20q-65 -24 -98 -87q-9 43 -9 87z" />
<glyph unicode="&#xad;" d="M206 695q5 291 172 581q-24 -180 -22 -299q2 -246 107 -478q120 -262 322 -379q-74 8 -160 20q-9 5 -34 11q-95 11 -198 95.5t-138 175.5l-12 32q-38 98 -37 241zM447 928q0 126 38 268q33 121 101 242q46 76 134 227q126 221 126 375q0 17 -2 32l19 1l-3 3 q351 -474 381 -928q9 -145 -26 -294q-39 -159 -122 -266q-38 -49 -140 -191q-52 -74 -71 -184l-16 -96q-79 58 -164.5 158t-131.5 188q-123 235 -123 465zM619 1245l17 -498h265q206 29 206 239q0 118 -81 191q-79 68 -199 68h-208zM803 1089q57 6 93.5 -25.5t31.5 -88.5 q-8 -80 -115 -80q0 -2 -5 96zM977 191q0 154 138 367q28 43 106 167q85 140 85 474q0 65 -2 102q-3 85 -18 276q225 -355 255 -750q3 -43 3 -83q0 -422 -344 -517l-63 -16q-13 -5 -53 -20q-65 -24 -98 -87q-9 43 -9 87z" />
<glyph unicode="&#x2000;" horiz-adv-x="1094" />
<glyph unicode="&#x2001;" horiz-adv-x="2188" />
<glyph unicode="&#x2002;" horiz-adv-x="1094" />
<glyph unicode="&#x2003;" horiz-adv-x="2188" />
<glyph unicode="&#x2004;" horiz-adv-x="729" />
<glyph unicode="&#x2005;" horiz-adv-x="547" />
<glyph unicode="&#x2006;" horiz-adv-x="364" />
<glyph unicode="&#x2007;" horiz-adv-x="364" />
<glyph unicode="&#x2008;" horiz-adv-x="273" />
<glyph unicode="&#x2009;" horiz-adv-x="437" />
<glyph unicode="&#x200a;" horiz-adv-x="121" />
<glyph unicode="&#x2010;" d="M206 695q5 291 172 581q-24 -180 -22 -299q2 -246 107 -478q120 -262 322 -379q-74 8 -160 20q-9 5 -34 11q-95 11 -198 95.5t-138 175.5l-12 32q-38 98 -37 241zM447 928q0 126 38 268q33 121 101 242q46 76 134 227q126 221 126 375q0 17 -2 32l19 1l-3 3 q351 -474 381 -928q9 -145 -26 -294q-39 -159 -122 -266q-38 -49 -140 -191q-52 -74 -71 -184l-16 -96q-79 58 -164.5 158t-131.5 188q-123 235 -123 465zM619 1245l17 -498h265q206 29 206 239q0 118 -81 191q-79 68 -199 68h-208zM803 1089q57 6 93.5 -25.5t31.5 -88.5 q-8 -80 -115 -80q0 -2 -5 96zM977 191q0 154 138 367q28 43 106 167q85 140 85 474q0 65 -2 102q-3 85 -18 276q225 -355 255 -750q3 -43 3 -83q0 -422 -344 -517l-63 -16q-13 -5 -53 -20q-65 -24 -98 -87q-9 43 -9 87z" />
<glyph unicode="&#x2011;" d="M206 695q5 291 172 581q-24 -180 -22 -299q2 -246 107 -478q120 -262 322 -379q-74 8 -160 20q-9 5 -34 11q-95 11 -198 95.5t-138 175.5l-12 32q-38 98 -37 241zM447 928q0 126 38 268q33 121 101 242q46 76 134 227q126 221 126 375q0 17 -2 32l19 1l-3 3 q351 -474 381 -928q9 -145 -26 -294q-39 -159 -122 -266q-38 -49 -140 -191q-52 -74 -71 -184l-16 -96q-79 58 -164.5 158t-131.5 188q-123 235 -123 465zM619 1245l17 -498h265q206 29 206 239q0 118 -81 191q-79 68 -199 68h-208zM803 1089q57 6 93.5 -25.5t31.5 -88.5 q-8 -80 -115 -80q0 -2 -5 96zM977 191q0 154 138 367q28 43 106 167q85 140 85 474q0 65 -2 102q-3 85 -18 276q225 -355 255 -750q3 -43 3 -83q0 -422 -344 -517l-63 -16q-13 -5 -53 -20q-65 -24 -98 -87q-9 43 -9 87z" />
<glyph unicode="&#x2012;" d="M206 695q5 291 172 581q-24 -180 -22 -299q2 -246 107 -478q120 -262 322 -379q-74 8 -160 20q-9 5 -34 11q-95 11 -198 95.5t-138 175.5l-12 32q-38 98 -37 241zM447 928q0 126 38 268q33 121 101 242q46 76 134 227q126 221 126 375q0 17 -2 32l19 1l-3 3 q351 -474 381 -928q9 -145 -26 -294q-39 -159 -122 -266q-38 -49 -140 -191q-52 -74 -71 -184l-16 -96q-79 58 -164.5 158t-131.5 188q-123 235 -123 465zM619 1245l17 -498h265q206 29 206 239q0 118 -81 191q-79 68 -199 68h-208zM803 1089q57 6 93.5 -25.5t31.5 -88.5 q-8 -80 -115 -80q0 -2 -5 96zM977 191q0 154 138 367q28 43 106 167q85 140 85 474q0 65 -2 102q-3 85 -18 276q225 -355 255 -750q3 -43 3 -83q0 -422 -344 -517l-63 -16q-13 -5 -53 -20q-65 -24 -98 -87q-9 43 -9 87z" />
<glyph unicode="&#x2013;" horiz-adv-x="1427" d="M205 695q4 291 132 581q-19 -180 -17 -299q1 -246 82 -478q92 -262 246 -379q-57 8 -122 20q-7 5 -26 11q-73 11 -152 95.5t-105 175.5q-3 8 -10 32q-29 98 -28 241zM389 928q0 126 30 268q25 121 77 242q35 76 102 227q97 221 97 375q0 17 -2 32l15 1l-2 3 q268 -474 291 -928q7 -145 -20 -294q-30 -159 -93 -266q-29 -49 -107 -191q-40 -74 -55 -184q-3 -30 -12 -96q-60 58 -125.5 158t-100.5 188q-95 235 -95 465zM521 1245l13 -498h203q158 29 158 239q0 118 -62 191q-61 68 -153 68h-159zM662 1089q44 6 71.5 -25.5 t24.5 -88.5q-7 -80 -88 -80q0 -2 -4 96zM795 191q0 154 106 367q21 43 81 167q65 140 65 474q0 65 -2 102q-2 85 -13 276q172 -355 195 -750q2 -43 2 -83q0 -422 -263 -517l-48 -16q-10 -5 -41 -20q-50 -24 -75 -87q-7 43 -7 87z" />
<glyph unicode="&#x2014;" horiz-adv-x="2451" d="M205 695q8 291 263 581q-36 -180 -33 -299q3 -246 163 -478q184 -262 493 -379q-113 8 -245 20q-13 5 -52 11q-145 11 -302.5 95.5t-211.5 175.5q-5 8 -18 32q-58 98 -57 241zM574 928q0 126 58 268q51 121 155 242q70 76 205 227q193 221 193 375q0 17 -3 32l29 1l-5 3 q537 -474 583 -928q14 -145 -40 -294q-59 -159 -186 -266q-58 -49 -215 -191q-79 -74 -108 -184q-8 -30 -25 -96q-121 58 -251.5 158t-201.5 188q-188 235 -188 465zM837 1245l26 -498h406q315 29 315 239q0 118 -124 191q-121 68 -304 68h-319zM1119 1089q87 6 143 -25.5 t48 -88.5q-12 -80 -176 -80q0 -2 -8 96zM1385 191q0 154 211 367q43 43 163 167q130 140 130 474q0 65 -3 102q-5 85 -28 276q344 -355 390 -750q5 -43 5 -83q0 -422 -527 -517l-96 -16q-20 -5 -81 -20q-100 -24 -150 -87q-14 43 -14 87z" />
<glyph unicode="&#x2018;" horiz-adv-x="378" d="M206 1727q13 178 111 384q87 0 134 -5q23 -18 50 -75q5 -46 -137 -339q-24 -8 -57 -8q-80 0 -101 43z" />
<glyph unicode="&#x2019;" horiz-adv-x="480" d="M167 2054q43 71 104 71q36 0 94 -41q21 -50 27 -138q8 -101 -1 -224q-52 -44 -92 -44q-8 2 -64 5q-35 112 -68 371z" />
<glyph unicode="&#x201c;" horiz-adv-x="740" d="M203 1697q16 178 120 386h41q54 0 102 -5l37 -35q16 -20 18 -44q3 -46 -146 -335q-25 -11 -63 -11q-85 0 -109 44zM441 1714q33 164 103 353h69q149 0 149 -95v-23q-50 -57 -171 -298q-33 -3 -60 -3q-22 0 -43 3q-32 19 -47 63z" />
<glyph unicode="&#x201d;" horiz-adv-x="740" d="M203 1949q52 -57 174 -298q33 -3 59 -3q20 0 43 3q30 19 47 63q-33 164 -102 353h-71q-150 0 -150 -95v-23zM444 1999q-2 -44 148 -335q25 -11 63 -11q85 0 107 44q-14 178 -118 386h-41q-55 0 -102 -5l-36 -35q-19 -20 -21 -44z" />
<glyph unicode="&#x202f;" horiz-adv-x="437" />
<glyph unicode="&#x205f;" horiz-adv-x="547" />
<glyph unicode="&#xe000;" horiz-adv-x="968" d="M0 0v969h969v-969h-969z" />
</font>
</defs>
</svg>
